<svg width="161" height="90" viewBox="0 0 161 90" fill="none" xmlns="http://www.w3.org/2000/svg">
<g clip-path="url(#clip0_1_6899)">
<rect x="0.5" y="9.15527e-05" width="160" height="90" rx="16" fill="white"/>
<g clip-path="url(#clip1_1_6899)">
<path fill-rule="evenodd" clip-rule="evenodd" d="M92.6405 53.461C87.0071 57.7251 78.8418 60.0001 71.8116 60.0001C61.9542 60.0001 53.08 56.2561 46.3663 50.029C45.8388 49.5393 46.3114 48.872 46.9444 49.2533C54.1898 53.5824 63.1484 56.1867 72.4024 56.1867C78.6434 56.1867 85.509 54.8607 91.8218 52.109C92.7755 51.693 93.573 52.7504 92.6405 53.461Z" fill="#FF9900"/>
<path fill-rule="evenodd" clip-rule="evenodd" d="M94.9827 50.7093C94.2653 49.7647 90.2228 50.263 88.4083 50.484C87.8555 50.5533 87.7711 50.0593 88.269 49.704C91.4887 47.377 96.7719 48.0486 97.388 48.8286C98.004 49.613 97.2276 55.0514 94.202 57.6471C93.7379 58.0457 93.2948 57.8334 93.5015 57.3047C94.1809 55.5627 95.7043 51.6583 94.9827 50.7093Z" fill="#FF9900"/>
<path fill-rule="evenodd" clip-rule="evenodd" d="M88.5346 33.2761V31.0141C88.5346 30.6718 88.7878 30.4421 89.0916 30.4421H98.9533C99.2698 30.4421 99.523 30.6761 99.523 31.0141V32.9511C99.5187 33.2761 99.2529 33.7008 98.7803 34.3725L93.6701 41.8649C95.569 41.8172 97.5734 42.1076 99.2951 43.1042C99.6833 43.3296 99.7888 43.6589 99.8183 43.9839V46.3976C99.8183 46.7269 99.4639 47.1126 99.0925 46.9133C96.0585 45.2796 92.0286 45.1019 88.6739 46.9306C88.3321 47.1213 87.9734 46.7399 87.9734 46.4106V44.1183C87.9734 43.7499 87.9776 43.1216 88.3363 42.5626L94.2567 33.8438H89.1043C88.7878 33.8438 88.5346 33.6141 88.5346 33.2761Z" fill="#1D1E25"/>
<path fill-rule="evenodd" clip-rule="evenodd" d="M52.5608 47.39H49.5606C49.2736 47.3683 49.0458 47.1473 49.0247 46.8656V31.0531C49.0247 30.7368 49.2821 30.4855 49.6028 30.4855H52.4005C52.6917 30.4985 52.9237 30.7281 52.9448 31.0141V33.0812H52.9997C53.7297 31.0835 55.1012 30.1518 56.9494 30.1518C58.8272 30.1518 60.0003 31.0835 60.8443 33.0812C61.5701 31.0835 63.22 30.1518 64.9881 30.1518C66.2456 30.1518 67.6213 30.6848 68.461 31.8808C69.4105 33.2112 69.2163 35.1438 69.2163 36.8382L69.2121 46.818C69.2121 47.1343 68.9547 47.39 68.634 47.39H65.638C65.3384 47.3683 65.0978 47.1213 65.0978 46.818V38.4372C65.0978 37.7699 65.1569 36.1059 65.0134 35.4732C64.7898 34.4115 64.1188 34.1125 63.2496 34.1125C62.5238 34.1125 61.7642 34.6108 61.4562 35.4082C61.1481 36.2055 61.1776 37.5402 61.1776 38.4372V46.818C61.1776 47.1343 60.9202 47.39 60.5995 47.39H57.6035C57.2997 47.3683 57.0634 47.1213 57.0634 46.818L57.0591 38.4372C57.0591 36.6735 57.3419 34.0778 55.2109 34.0778C53.0546 34.0778 53.139 36.6085 53.139 38.4372V46.818C53.139 47.1343 52.8815 47.39 52.5608 47.39" fill="#1D1E25"/>
<path fill-rule="evenodd" clip-rule="evenodd" d="M108.013 30.1518C112.465 30.1518 114.874 34.0778 114.874 39.0699C114.874 43.8929 112.212 47.7193 108.013 47.7193C103.641 47.7193 101.261 43.7933 101.261 38.9009C101.261 33.9782 103.671 30.1518 108.013 30.1518ZM108.038 33.3802C105.827 33.3802 105.688 36.4742 105.688 38.4025C105.688 40.3352 105.658 44.4606 108.013 44.4606C110.338 44.4606 110.448 41.1326 110.448 39.1046C110.448 37.7699 110.393 36.1752 110 34.9098C109.663 33.8092 108.992 33.3802 108.038 33.3802Z" fill="#1D1E25"/>
<path fill-rule="evenodd" clip-rule="evenodd" d="M120.647 47.39H117.66C117.36 47.3683 117.119 47.1213 117.119 46.818L117.115 31.0011C117.141 30.7108 117.39 30.4855 117.693 30.4855H120.474C120.736 30.4985 120.951 30.6805 121.01 30.9275V33.3455H121.065C121.905 31.1831 123.082 30.1518 125.154 30.1518C126.5 30.1518 127.812 30.6501 128.656 32.0151C129.441 33.2805 129.441 35.4082 129.441 36.9379V46.8916C129.407 47.169 129.158 47.39 128.863 47.39H125.854C125.58 47.3683 125.352 47.1603 125.323 46.8916V38.3029C125.323 36.5739 125.517 34.0432 123.445 34.0432C122.715 34.0432 122.044 34.5458 121.711 35.3085C121.289 36.2749 121.234 37.2369 121.234 38.3029V46.818C121.23 47.1343 120.968 47.39 120.647 47.39" fill="#1D1E25"/>
<path fill-rule="evenodd" clip-rule="evenodd" d="M80.6732 39.8369C80.6732 41.0372 80.7028 42.0382 80.112 43.1043C79.6352 43.9709 78.8756 44.5039 78.0359 44.5039C76.8839 44.5039 76.2087 43.6026 76.2087 42.2723C76.2087 39.6462 78.5 39.1696 80.6732 39.1696V39.8369ZM83.6988 47.3466C83.5005 47.5286 83.2135 47.5416 82.9899 47.4203C81.994 46.571 81.8126 46.1766 81.2682 45.3663C79.6225 47.091 78.4536 47.6066 76.3226 47.6066C73.795 47.6066 71.8328 46.0076 71.8328 42.8053C71.8328 40.3049 73.1493 38.6019 75.0314 37.7699C76.6602 37.0332 78.9347 36.9032 80.6732 36.6995V36.3009C80.6732 35.5685 80.7281 34.7018 80.3061 34.0692C79.9432 33.5015 79.2427 33.2675 78.6224 33.2675C77.4788 33.2675 76.4619 33.8698 76.2129 35.1178C76.1623 35.3952 75.9639 35.6682 75.6897 35.6812L72.7822 35.3605C72.5375 35.3042 72.2632 35.1005 72.3349 34.7148C73.0016 31.0921 76.1918 30.0001 79.0444 30.0001C80.5044 30.0001 82.4118 30.3988 83.5638 31.5341C85.0238 32.9338 84.8846 34.8015 84.8846 36.8339V41.6352C84.8846 43.0783 85.4669 43.7109 86.0155 44.4909C86.2054 44.7683 86.2476 45.1019 86.0028 45.3099C85.3909 45.8343 84.3022 46.8093 83.703 47.3553L83.6988 47.3466" fill="#1D1E25"/>
<path fill-rule="evenodd" clip-rule="evenodd" d="M41.3405 39.8371C41.3405 41.0374 41.37 42.0384 40.7792 43.1044C40.3024 43.9711 39.547 44.5041 38.7031 44.5041C37.5511 44.5041 36.8801 43.6028 36.8801 42.2724C36.8801 39.6464 39.1715 39.1697 41.3405 39.1697V39.8371ZM44.366 47.3468C44.1677 47.5288 43.8808 47.5418 43.6571 47.4205C42.6612 46.5711 42.484 46.1768 41.9354 45.3665C40.2897 47.0911 39.1251 47.6068 36.9899 47.6068C34.4664 47.6068 32.5 46.0078 32.5 42.8054C32.5 40.3051 33.8208 38.6021 35.6986 37.7701C37.3274 37.0334 39.6019 36.9034 41.3405 36.6997V36.301C41.3405 35.5687 41.3953 34.702 40.9776 34.0693C40.6104 33.5017 39.9099 33.2677 39.2939 33.2677C38.1503 33.2677 37.1291 33.87 36.8801 35.118C36.8295 35.3954 36.6312 35.6684 36.3611 35.6814L33.4495 35.3607C33.2047 35.3044 32.9346 35.1007 33.0022 34.715C33.6731 31.0923 36.859 30.0003 39.7116 30.0003C41.1717 30.0003 43.079 30.399 44.231 31.5343C45.6911 32.934 45.5518 34.8017 45.5518 36.834V41.6354C45.5518 43.0784 46.1341 43.7111 46.6827 44.4911C46.8768 44.7685 46.919 45.1021 46.6743 45.3101C46.0624 45.8345 44.9737 46.8095 44.3745 47.3555L44.366 47.3468" fill="#1D1E25"/>
</g>
</g>
<defs>
<clipPath id="clip0_1_6899">
<rect width="160" height="90" fill="white" transform="translate(0.5 9.15527e-05)"/>
</clipPath>
<clipPath id="clip1_1_6899">
<rect width="96.9412" height="30" fill="white" transform="translate(32.5 30.0001)"/>
</clipPath>
</defs>
</svg>
