<svg width="56" height="56" viewBox="0 0 56 56" fill="none" xmlns="http://www.w3.org/2000/svg">
<rect width="56" height="56" rx="28" fill="#161A34" fill-opacity="0.6"/>
<path fill-rule="evenodd" clip-rule="evenodd" d="M28.0001 37.6C22.6982 37.6 18.4001 33.302 18.4001 28C18.4001 22.6981 22.6982 18.4 28.0001 18.4C33.302 18.4 37.6001 22.6981 37.6001 28C37.6001 33.302 33.302 37.6 28.0001 37.6ZM31.6001 26.8C30.9374 26.8 30.4001 26.2628 30.4001 25.6C30.4001 24.9373 30.9374 24.4 31.6001 24.4C32.2628 24.4 32.8001 24.9373 32.8001 25.6C32.8001 26.2628 32.2628 26.8 31.6001 26.8ZM23.2001 25.6C23.2001 26.2628 23.7374 26.8 24.4001 26.8C25.0628 26.8 25.6001 26.2628 25.6001 25.6C25.6001 24.9373 25.0628 24.4 24.4001 24.4C23.7374 24.4 23.2001 24.9373 23.2001 25.6ZM23.7575 32.2426C23.2888 31.7739 23.2888 31.0141 23.7575 30.5455C24.2261 30.0769 24.9859 30.0769 25.4545 30.5455C26.8604 31.9514 29.1398 31.9514 30.5457 30.5455C31.0143 30.0769 31.7741 30.0769 32.2427 30.5455C32.7114 31.0141 32.7114 31.7739 32.2427 32.2426C29.8996 34.5857 26.1006 34.5857 23.7575 32.2426Z" fill="white"/>
</svg>
