<svg width="161" height="90" viewBox="0 0 161 90" fill="none" xmlns="http://www.w3.org/2000/svg">
<g clip-path="url(#clip0_1_6936)">
<rect x="0.5" y="0.00012207" width="160" height="90" rx="16" fill="white"/>
<g clip-path="url(#clip1_1_6936)">
<path fill-rule="evenodd" clip-rule="evenodd" d="M115.677 43.9135L109.807 54.0706L104.799 54.0906L115.677 34.9725L126.516 54.0906H121.428L115.677 43.9125V43.9135ZM99.8704 49.6689H105.48L102.875 54.0906H95.5641L95.5839 48.7067V35.0901H99.8912L99.8714 49.6689H99.8704ZM84.486 35.0911C89.8346 35.111 94.1617 39.3544 94.1419 44.5998C94.1221 49.8263 89.7949 54.0706 84.4453 54.0706C79.1165 54.0507 74.7894 49.8074 74.7894 44.5609C74.8092 39.3344 79.1363 35.0911 84.486 35.0911ZM84.4661 49.65C87.3304 49.65 89.6333 47.3898 89.6333 44.5998C89.6541 41.8107 87.3304 39.5307 84.486 39.5307C81.6406 39.5107 79.3168 41.7908 79.3168 44.5809C79.297 47.3699 81.6207 49.65 84.4651 49.65H84.4661ZM66.8165 43.0907C66.7569 42.3038 66.5556 41.2629 66.2551 40.2618C65.6368 38.194 64.5617 36.2931 63.1102 34.7006C62.3485 33.8758 61.4876 33.1089 60.2043 32.2054C59.226 31.7205 58.2641 31.2029 57.3202 30.6535C56.6993 30.2999 55.9575 29.8666 54.9766 29.5528C53.8136 29.2771 52.6248 29.1258 51.43 29.1016C50.2696 29.0617 49.1063 29.1613 47.9846 29.3765C46.8024 29.5727 45.8205 29.8865 44.5183 30.2013C41.5727 31.4782 39.2897 33.4037 37.326 35.9587C30.4748 45.566 36.6654 59.0252 48.1046 60.616C49.988 60.872 51.8714 60.7734 53.6536 60.361L54.9161 60.0273C54.9558 60.0074 55.0163 59.9874 55.056 59.9874L56.499 59.4376C56.5783 59.3978 56.6388 59.3778 56.7192 59.339L57.3202 59.0641C58.4734 58.4925 59.5558 57.7871 60.5454 56.9623C59.6446 57.7844 58.6649 58.5147 57.6207 59.1428L57.6802 59.1826C57.8815 59.1228 58.061 59.0641 58.2614 59.0252C58.2614 59.0252 58.2614 59.339 58.2217 59.2802C57.9014 59.5163 58.4022 59.3001 59.0429 58.9655C59.6846 58.6318 60.3054 58.2184 60.8658 57.7472C61.688 57.0599 62.409 56.3129 63.4305 55.0956C64.4719 53.2678 65.7751 51.676 66.3761 49.5344C66.5764 48.9647 66.756 48.2973 66.877 47.609C66.996 46.9217 67.0773 46.2145 67.0773 45.4873C67.0575 44.7602 66.9771 44.0131 66.8165 43.0907ZM51.9914 59.2414C55.4973 58.6905 58.4419 56.7462 60.846 54.0936C61.5075 53.1303 62.0282 52.2458 62.6688 51.2836C63.4702 49.3183 63.4107 47.5701 63.6705 46.333C63.9919 44.0918 63.2302 42.2849 62.5895 40.3594C61.6076 38.1192 60.3054 36.4497 58.0214 35.1528C52.2512 31.5769 44.3983 32.5779 40.6524 37.923C40.6325 37.923 40.5314 38.0604 40.331 38.3354C40.5919 37.2357 41.2534 36.5872 41.9139 35.9577C43.8776 34.347 46.1617 33.069 48.7661 32.4415C51.7117 32.1267 54.6354 32.4415 57.2597 33.7185C61.1871 35.9577 63.7915 39.4759 64.4521 43.6396V47.4914C63.6309 53.7987 58.2217 58.5929 51.9914 59.2414ZM66.3959 44.8976C66.2551 35.6638 57.1 29.4353 48.1849 30.6933C45.5805 31.3408 42.7351 32.6377 40.7119 34.4456C39.73 35.0931 39.2698 36.2924 38.288 37.2546C34.3605 43.012 35.0429 50.3801 39.9304 54.8605C40.5573 55.4831 41.2267 56.0609 41.9338 56.5898C37.8476 54.1324 36.0039 50.418 35.3632 45.9007C35.3632 44.289 35.6836 42.6972 36.0238 41.0866C38.3088 34.0322 45.5002 28.9043 53.3342 30.2013C54.6364 30.516 55.9386 30.8497 57.2617 31.1645C58.9041 31.8119 60.5266 32.7752 61.8288 34.0531C63.131 35.3291 64.1129 36.9408 65.0947 38.5316C65.7553 39.8096 66.0766 41.4203 66.3969 42.6972C66.4564 43.4244 66.4564 44.1715 66.3969 44.8986L66.3959 44.8976Z" fill="#1D1E25"/>
<path fill-rule="evenodd" clip-rule="evenodd" d="M58.2622 45.036C58.2622 49.0054 54.9368 52.2278 50.8298 52.2278C46.7239 52.2278 43.3975 49.0054 43.3975 45.036C43.3975 41.0676 46.7229 37.8452 50.8298 37.8452C54.9368 37.8452 58.2622 41.0676 58.2622 45.037V45.036Z" fill="white"/>
<path fill-rule="evenodd" clip-rule="evenodd" d="M58.3029 43.8178C58.2027 43.268 58.042 42.8356 57.8824 42.227C57.2407 40.8903 56.2995 39.8494 55.0568 38.9648C50.4093 35.8809 44.0183 38.8473 43.3379 44.1136C43.0781 46.1965 43.819 48.2006 45.141 49.7336C44.7403 49.3202 44.3 48.8889 43.9995 48.3968L43.9598 48.4367C43.9995 48.5542 44.1601 48.6329 44.1998 48.7505C44.1998 48.7505 44.0391 48.7505 44.0798 48.7305C43.9598 48.5941 44.06 48.8102 44.2395 49.1041C44.4001 49.3989 44.6005 49.6748 44.8405 49.9298C45.1817 50.3034 45.5417 50.6371 46.1427 51.0893C47.0254 51.5405 47.8059 52.1302 48.8274 52.4051C49.1081 52.4848 49.4284 52.5625 49.7498 52.6213C50.09 52.681 50.4103 52.701 50.7713 52.701C51.1115 52.701 51.4725 52.6611 51.9128 52.5814C52.3669 52.5277 52.8158 52.4361 53.2547 52.3075C54.2352 52.0111 55.1384 51.5009 55.8998 50.8134C56.2806 50.4607 56.8221 50.0085 57.2417 49.4188C57.5828 48.7514 57.6225 48.4168 57.7832 48.1219C57.9429 47.8271 58.1432 47.4934 58.284 47.0412C58.3988 46.5047 58.4659 45.959 58.4844 45.4105C58.4645 44.8607 58.4249 44.3298 58.3039 43.8188L58.3029 43.8178ZM53.5344 40.1641C54.2158 40.5566 54.3159 40.6154 53.9549 40.3604C54.4766 40.4779 54.7969 40.7727 55.1173 41.0676C55.8988 41.9521 56.5395 42.993 56.8598 44.1913C57.0403 45.547 56.8995 46.9027 56.3193 48.102C55.2779 49.9288 53.6147 51.1471 51.6312 51.4807C51.411 51.4807 51.171 51.4807 50.9498 51.5007C51.5112 51.4021 51.8722 51.0484 52.8937 50.6749C53.9946 50.2824 55.2373 48.4556 55.8393 47.3938C57.6017 44.5051 55.518 41.8336 53.5344 40.1641ZM49.7686 51.5196C46.7239 51.2058 44.3793 48.7106 44.059 45.8219C44.3386 47.4336 45.3007 48.6708 46.6029 49.7714C47.064 50.0663 47.7444 50.4787 48.2056 50.7735C48.9871 51.0684 49.4473 51.3831 50.209 51.5206H49.7686V51.5196ZM57.9617 46.2742C57.8228 46.8838 57.682 47.4725 57.5412 48.0821C57.2407 48.8291 56.8003 49.5951 56.1993 50.2038C55.5983 50.8134 54.8366 51.2845 54.0759 51.7367C53.4749 52.0505 52.7132 52.2079 52.0924 52.3643C51.7314 52.4041 51.3108 52.2467 50.9498 52.2278C55.398 52.1093 58.4427 47.9645 57.7822 43.8576C57.4608 42.6593 56.8202 41.6174 56.0386 40.5765C55.7183 40.1243 55.0965 39.8494 54.6363 39.3971C51.8514 37.649 48.1659 38.0026 46.0624 40.3016C45.7674 40.6037 45.4927 40.9251 45.2402 41.2638C46.3629 39.6133 48.1659 38.4548 50.329 38.1201C51.0907 38.1002 51.8722 38.2387 52.6329 38.3761C55.999 39.3971 58.5032 42.6593 57.9617 46.2752V46.2742Z" fill="#D7DF23"/>
</g>
</g>
<defs>
<clipPath id="clip0_1_6936">
<rect width="160" height="90" fill="white" transform="translate(0.5 0.00012207)"/>
</clipPath>
<clipPath id="clip1_1_6936">
<rect width="92.2353" height="31.875" fill="white" transform="translate(34.3823 29.0626)"/>
</clipPath>
</defs>
</svg>
