<svg width="18" height="16" viewBox="0 0 18 16" fill="none" xmlns="http://www.w3.org/2000/svg">
<path fill-rule="evenodd" clip-rule="evenodd" d="M0.600098 2.00005C0.600098 1.33731 1.13736 0.800049 1.8001 0.800049H16.2001C16.8628 0.800049 17.4001 1.33731 17.4001 2.00005C17.4001 2.66279 16.8628 3.20005 16.2001 3.20005H1.8001C1.13736 3.20005 0.600098 2.66279 0.600098 2.00005Z" fill="#101010"/>
<path fill-rule="evenodd" clip-rule="evenodd" d="M0.600098 8.00005C0.600098 7.33731 1.13736 6.80005 1.8001 6.80005H16.2001C16.8628 6.80005 17.4001 7.33731 17.4001 8.00005C17.4001 8.66279 16.8628 9.20005 16.2001 9.20005H1.8001C1.13736 9.20005 0.600098 8.66279 0.600098 8.00005Z" fill="#101010"/>
<path fill-rule="evenodd" clip-rule="evenodd" d="M7.8001 14C7.8001 13.3373 8.33736 12.8 9.0001 12.8H16.2001C16.8628 12.8 17.4001 13.3373 17.4001 14C17.4001 14.6628 16.8628 15.2 16.2001 15.2H9.0001C8.33736 15.2 7.8001 14.6628 7.8001 14Z" fill="#101010"/>
</svg>
