<svg width="161" height="90" viewBox="0 0 161 90" fill="none" xmlns="http://www.w3.org/2000/svg">
<g clip-path="url(#clip0_1_6927)">
<rect x="0.5" y="0.00012207" width="160" height="90" rx="16" fill="white"/>
<g clip-path="url(#clip1_1_6927)">
<path d="M74.3138 45.3849C74.3138 49.549 71.0299 52.6175 66.9998 52.6175C62.9697 52.6175 59.6858 49.549 59.6858 45.3849C59.6858 41.1914 62.9697 38.1523 66.9998 38.1523C71.0299 38.1523 74.3138 41.1914 74.3138 45.3849ZM71.1121 45.3849C71.1121 42.7827 69.2088 41.0023 66.9998 41.0023C64.7908 41.0023 62.8875 42.7827 62.8875 45.3849C62.8875 47.961 64.7908 49.7675 66.9998 49.7675C69.2088 49.7675 71.1121 47.9577 71.1121 45.3849Z" fill="#EA4335"/>
<path d="M90.0924 45.3849C90.0924 49.549 86.8085 52.6175 82.7784 52.6175C78.7483 52.6175 75.4644 49.549 75.4644 45.3849C75.4644 41.1947 78.7483 38.1523 82.7784 38.1523C86.8085 38.1523 90.0924 41.1914 90.0924 45.3849ZM86.8906 45.3849C86.8906 42.7827 84.9874 41.0023 82.7784 41.0023C80.5694 41.0023 78.6661 42.7827 78.6661 45.3849C78.6661 47.961 80.5694 49.7675 82.7784 49.7675C84.9874 49.7675 86.8906 47.9577 86.8906 45.3849Z" fill="#FBBC05"/>
<path d="M105.214 38.5892V51.574C105.214 56.9153 102.038 59.0968 98.2841 59.0968C94.7503 59.0968 92.6235 56.7523 91.8214 54.8349L94.609 53.6838C95.1054 54.861 96.3216 56.2501 98.2808 56.2501C100.684 56.2501 102.173 54.7795 102.173 52.011V50.9708H102.061C101.344 51.8479 99.9638 52.6142 98.2216 52.6142C94.5761 52.6142 91.2363 49.4642 91.2363 45.411C91.2363 41.3284 94.5761 38.1523 98.2216 38.1523C99.9606 38.1523 101.341 38.9186 102.061 39.7697H102.173V38.5925H105.214V38.5892ZM102.4 45.411C102.4 42.8642 100.687 41.0023 98.5076 41.0023C96.2986 41.0023 94.4479 42.8642 94.4479 45.411C94.4479 47.9316 96.2986 49.7675 98.5076 49.7675C100.687 49.7675 102.4 47.9316 102.4 45.411Z" fill="#4285F4"/>
<path d="M110.227 30.9784V52.174H107.104V30.9784H110.227Z" fill="#34A853"/>
<path d="M122.396 47.7654L124.881 49.4088C124.079 50.586 122.146 52.6143 118.806 52.6143C114.664 52.6143 111.571 49.4382 111.571 45.3817C111.571 41.0806 114.691 38.149 118.448 38.149C122.231 38.149 124.082 41.136 124.687 42.7501L125.019 43.5719L115.272 47.5762C116.019 49.0273 117.179 49.7675 118.806 49.7675C120.437 49.7675 121.567 48.9719 122.396 47.7654ZM114.746 45.1632L121.262 42.4795C120.903 41.5762 119.825 40.9469 118.556 40.9469C116.929 40.9469 114.664 42.3719 114.746 45.1632Z" fill="#EA4335"/>
<path d="M47.8652 43.5034V40.4349H58.2889C58.3908 40.9697 58.4434 41.6023 58.4434 42.2871C58.4434 44.5893 57.809 47.436 55.7644 49.4643C53.7756 51.5186 51.2346 52.6143 47.8685 52.6143C41.6294 52.6143 36.3831 47.5729 36.3831 41.3838C36.3831 35.1947 41.6294 30.1534 47.8685 30.1534C51.3201 30.1534 53.7789 31.4969 55.6263 33.2479L53.4436 35.4132C52.1189 34.1806 50.3241 33.2219 47.8652 33.2219C43.3092 33.2219 39.7459 36.8643 39.7459 41.3838C39.7459 45.9034 43.3092 49.5458 47.8652 49.5458C50.8204 49.5458 52.5035 48.3686 53.5817 47.299C54.4561 46.4316 55.0313 45.1925 55.2581 43.5001L47.8652 43.5034Z" fill="#4285F4"/>
</g>
</g>
<defs>
<clipPath id="clip0_1_6927">
<rect width="160" height="90" fill="white" transform="translate(0.5 0.00012207)"/>
</clipPath>
<clipPath id="clip1_1_6927">
<rect width="89.4118" height="30" fill="white" transform="translate(36.2646 30.0001)"/>
</clipPath>
</defs>
</svg>
