<svg width="161" height="90" viewBox="0 0 161 90" fill="none" xmlns="http://www.w3.org/2000/svg">
<g clip-path="url(#clip0_1_6948)">
<rect x="0.5" y="0.00012207" width="160" height="90" rx="16" fill="white"/>
<g clip-path="url(#clip1_1_6948)">
<path d="M105.972 58.7252C113.481 58.7252 119.591 52.5407 119.591 44.9402C119.591 37.3352 113.481 31.1552 105.972 31.1552C98.4614 31.1552 92.353 37.3352 92.353 44.9402C92.353 52.5407 98.4614 58.7252 105.972 58.7252ZM105.972 40.0247C108.648 40.0247 110.827 42.2297 110.827 44.9387C110.827 47.6476 108.647 49.8497 105.97 49.8497C103.293 49.8497 101.117 47.6477 101.117 44.9372C101.117 42.2252 103.294 40.0217 105.97 40.0217L105.972 40.0247ZM54.5897 58.7252C62.0988 58.7252 68.2087 52.5407 68.2087 44.9402C68.2087 37.3352 62.0988 31.1552 54.5897 31.1552C47.0821 31.1552 40.9707 37.3352 40.9707 44.9402C40.9707 52.5407 47.0821 58.7252 54.5897 58.7252ZM54.5897 40.0247C57.2673 40.0247 59.4451 42.2297 59.4451 44.9387C59.4451 47.6476 57.2673 49.8497 54.5897 49.8497C51.9136 49.8497 49.7373 47.6477 49.7373 44.9372C49.7373 42.2252 51.9151 40.0217 54.5897 40.0217V40.0247ZM80.2734 39.7142L76.0922 31.3352H66.3023L75.4463 49.6652V58.2947H85.1019V49.6652L94.2459 31.3352H84.4516L80.2749 39.7142H80.2734Z" fill="#EE2E24"/>
</g>
</g>
<defs>
<clipPath id="clip0_1_6948">
<rect width="160" height="90" fill="white" transform="translate(0.5 0.00012207)"/>
</clipPath>
<clipPath id="clip1_1_6948">
<rect width="79.0588" height="30" fill="white" transform="translate(40.9707 30.0001)"/>
</clipPath>
</defs>
</svg>
