<svg width="18" height="18" viewBox="0 0 18 18" fill="none" xmlns="http://www.w3.org/2000/svg">
<path fill-rule="evenodd" clip-rule="evenodd" d="M9.0001 0.599976C9.66284 0.599976 10.2001 1.13723 10.2001 1.79998L10.2001 7.79998L16.2001 7.79998C16.8628 7.79998 17.4001 8.33723 17.4001 8.99998C17.4001 9.66272 16.8628 10.2 16.2001 10.2H10.2001V16.2C10.2001 16.8627 9.66284 17.4 9.0001 17.4C8.33736 17.4 7.8001 16.8627 7.8001 16.2L7.8001 10.2L1.8001 10.2C1.13736 10.2 0.600098 9.66272 0.600098 8.99997C0.600098 8.33723 1.13736 7.79997 1.8001 7.79997L7.8001 7.79998L7.8001 1.79998C7.8001 1.13723 8.33736 0.599976 9.0001 0.599976Z" fill="#1D1E25"/>
</svg>
