<svg width="16" height="16" viewBox="0 0 16 16" fill="none" xmlns="http://www.w3.org/2000/svg">
<path fill-rule="evenodd" clip-rule="evenodd" d="M8.98156 0.637182L10.6059 4.07318C10.7651 4.4105 11.0724 4.6444 11.4288 4.69852L15.0625 5.25234C15.9603 5.38959 16.3176 6.54169 15.6678 7.20183L13.0402 9.87524C12.7819 10.1381 12.6644 10.516 12.7255 10.8872L13.3456 14.6615C13.4983 15.5951 12.5598 16.3075 11.7573 15.8658L8.50952 14.0825C8.19113 13.9076 7.8098 13.9076 7.49048 14.0825L4.24267 15.8658C3.44021 16.3075 2.50168 15.5951 2.65533 14.6615L3.27453 10.8872C3.33562 10.516 3.21807 10.1381 2.95984 9.87524L0.33216 7.20183C-0.317586 6.54169 0.0396815 5.38959 0.937479 5.25234L4.57125 4.69852C4.92759 4.6444 5.2358 4.4105 5.395 4.07318L7.01844 0.637182C7.42013 -0.212394 8.57987 -0.212394 8.98156 0.637182Z" fill="#FFD33C"/>
</svg>
