<svg width="32" height="32" viewBox="0 0 32 32" fill="none" xmlns="http://www.w3.org/2000/svg">
<path opacity="0.1" fill-rule="evenodd" clip-rule="evenodd" d="M0 16.0002C0 7.16369 7.16344 0.000244141 16 0.000244141C24.8366 0.000244141 32 7.16369 32 16.0002C32 24.8368 24.8366 32.0002 16 32.0002C7.16344 32.0002 0 24.8368 0 16.0002Z" fill="#161A34"/>
<path fill-rule="evenodd" clip-rule="evenodd" d="M16.0009 7.46692C13.6834 7.46692 13.3925 7.47705 12.4823 7.51848C11.5739 7.56008 10.9538 7.7039 10.4112 7.91492C9.84993 8.13288 9.37384 8.42444 8.89952 8.89893C8.42485 9.37325 8.13329 9.84934 7.91462 10.4104C7.70307 10.9532 7.55906 11.5735 7.51818 12.4815C7.47746 13.3918 7.4668 13.6828 7.4668 16.0003C7.4668 18.3179 7.47711 18.6078 7.51835 19.5181C7.56013 20.4265 7.70395 21.0466 7.9148 21.5892C8.13294 22.1504 8.4245 22.6265 8.89899 23.1009C9.37313 23.5755 9.84922 23.8678 10.4101 24.0858C10.9531 24.2968 11.5733 24.4406 12.4816 24.4822C13.3918 24.5236 13.6825 24.5338 15.9999 24.5338C18.3176 24.5338 18.6075 24.5236 19.5178 24.4822C20.4262 24.4406 21.047 24.2968 21.59 24.0858C22.151 23.8678 22.6264 23.5755 23.1006 23.1009C23.5752 22.6265 23.8668 22.1504 24.0855 21.5894C24.2952 21.0466 24.4392 20.4263 24.4819 19.5182C24.5228 18.608 24.5335 18.3179 24.5335 16.0003C24.5335 13.6828 24.5228 13.392 24.4819 12.4817C24.4392 11.5733 24.2952 10.9532 24.0855 10.4106C23.8668 9.84934 23.5752 9.37325 23.1006 8.89893C22.6259 8.42426 22.1512 8.1327 21.5894 7.91492C21.0454 7.7039 20.425 7.56008 19.5165 7.51848C18.6063 7.47705 18.3165 7.46692 15.9983 7.46692H16.0009ZM15.2354 9.00469C15.4626 9.00433 15.7161 9.00469 16.0009 9.00469C18.2793 9.00469 18.5494 9.01287 19.4491 9.05376C20.2811 9.0918 20.7327 9.23082 21.0335 9.34763C21.4317 9.50229 21.7156 9.68718 22.0141 9.98585C22.3128 10.2845 22.4977 10.569 22.6527 10.9672C22.7695 11.2676 22.9087 11.7192 22.9466 12.5512C22.9875 13.4508 22.9963 13.721 22.9963 15.9984C22.9963 18.2757 22.9875 18.5459 22.9466 19.4455C22.9085 20.2775 22.7695 20.7291 22.6527 21.0295C22.498 21.4278 22.3128 21.7113 22.0141 22.0098C21.7154 22.3085 21.4319 22.4934 21.0335 22.648C20.733 22.7654 20.2811 22.904 19.4491 22.9421C18.5495 22.983 18.2793 22.9919 16.0009 22.9919C13.7223 22.9919 13.4522 22.983 12.5527 22.9421C11.7207 22.9037 11.2691 22.7647 10.9681 22.6479C10.5699 22.4932 10.2855 22.3083 9.98679 22.0096C9.68812 21.711 9.50323 21.4272 9.3482 21.0288C9.2314 20.7284 9.0922 20.2768 9.05433 19.4448C9.01344 18.5452 9.00527 18.275 9.00527 15.9962C9.00527 13.7174 9.01344 13.4486 9.05433 12.5491C9.09238 11.7171 9.2314 11.2655 9.3482 10.9647C9.50287 10.5665 9.68812 10.282 9.98679 9.98337C10.2855 9.6847 10.5699 9.4998 10.9681 9.34478C11.2689 9.22745 11.7207 9.08878 12.5527 9.05056C13.3399 9.015 13.645 9.00433 15.2354 9.00256V9.00469ZM20.556 10.4216C19.9906 10.4216 19.532 10.8797 19.532 11.4453C19.532 12.0106 19.9906 12.4693 20.556 12.4693C21.1213 12.4693 21.58 12.0106 21.58 11.4453C21.58 10.8799 21.1213 10.4216 20.556 10.4216ZM16.0009 11.6181C13.5808 11.6181 11.6187 13.5802 11.6187 16.0003C11.6187 18.4204 13.5808 20.3817 16.0009 20.3817C18.4211 20.3817 20.3825 18.4204 20.3825 16.0003C20.3825 13.5802 18.4211 11.6181 16.0009 11.6181ZM16.0009 13.1558C17.5718 13.1558 18.8454 14.4293 18.8454 16.0003C18.8454 17.5712 17.5718 18.8448 16.0009 18.8448C14.4299 18.8448 13.1564 17.5712 13.1564 16.0003C13.1564 14.4293 14.4299 13.1558 16.0009 13.1558Z" fill="#161A34"/>
</svg>
