<svg width="56" height="56" viewBox="0 0 56 56" fill="none" xmlns="http://www.w3.org/2000/svg">
<rect width="56" height="56" rx="28" fill="#161A34" fill-opacity="0.6"/>
<path d="M31.6002 22C31.6002 23.9882 29.9884 25.6 28.0002 25.6C26.012 25.6 24.4002 23.9882 24.4002 22C24.4002 20.0118 26.012 18.4 28.0002 18.4C29.9884 18.4 31.6002 20.0118 31.6002 22Z" fill="white"/>
<path d="M37.6002 24.4C37.6002 25.7255 36.5257 26.8 35.2002 26.8C33.8747 26.8 32.8002 25.7255 32.8002 24.4C32.8002 23.0745 33.8747 22 35.2002 22C36.5257 22 37.6002 23.0745 37.6002 24.4Z" fill="white"/>
<path d="M32.8002 32.8C32.8002 30.1491 30.6512 28 28.0002 28C25.3492 28 23.2002 30.1491 23.2002 32.8V36.4H32.8002V32.8Z" fill="white"/>
<path d="M23.2002 24.4C23.2002 25.7255 22.1257 26.8 20.8002 26.8C19.4747 26.8 18.4002 25.7255 18.4002 24.4C18.4002 23.0745 19.4747 22 20.8002 22C22.1257 22 23.2002 23.0745 23.2002 24.4Z" fill="white"/>
<path d="M35.2002 36.4V32.8C35.2002 31.5351 34.874 30.3463 34.3011 29.3132C34.5885 29.2393 34.8897 29.2 35.2002 29.2C37.1884 29.2 38.8002 30.8118 38.8002 32.8V36.4H35.2002Z" fill="white"/>
<path d="M21.6993 29.3132C21.1264 30.3463 20.8002 31.5351 20.8002 32.8V36.4H17.2002V32.8C17.2002 30.8118 18.812 29.2 20.8002 29.2C21.1106 29.2 21.4119 29.2393 21.6993 29.3132Z" fill="white"/>
</svg>
