<svg width="161" height="90" viewBox="0 0 161 90" fill="none" xmlns="http://www.w3.org/2000/svg">
<g clip-path="url(#clip0_1_6943)">
<rect x="0.5" y="0.00012207" width="160" height="90" rx="16" fill="white"/>
<g clip-path="url(#clip1_1_6943)">
<path d="M64.222 41.2119V42.6996H64.2679C64.8073 41.9031 65.7029 40.9651 67.6881 40.9651C69.2324 40.9651 70.4172 41.7451 70.9249 42.9234H70.9708C71.4045 42.3276 71.9016 41.8767 72.4587 41.5575C73.1181 41.179 73.8515 40.9618 74.7753 40.9618C76.8662 40.9618 78.7174 42.3112 78.7174 45.7143V52.1685H75.5299V46.1652C75.5299 44.4406 74.9022 43.4434 73.5976 43.4434C72.6421 43.4434 71.9475 44.0424 71.683 44.7796C71.5913 45.0331 71.549 45.3786 71.549 45.6683V52.1718H68.3615V45.9217C68.3615 44.4571 67.7586 43.4401 66.4716 43.4401C65.442 43.4401 64.7968 44.1971 64.5323 44.8455C64.4195 45.1219 64.3842 45.4412 64.3842 45.7407V52.1685H61.1932V41.2119H64.222ZM95.1696 41.2119V43.2788H95.2578C95.8431 41.699 97.2323 40.9651 98.4523 40.9651C98.7591 40.9651 98.9283 40.9881 99.1751 41.0342V43.9042C98.8825 43.8647 98.611 43.8252 98.2302 43.8252C96.848 43.8252 95.8854 44.5756 95.6421 45.7505C95.5892 45.9941 95.5716 46.2574 95.5716 46.5602V52.1718H92.2995V41.2119H95.1696ZM103.618 37.5817V41.0309H106.382V43.8219H103.618V47.9392C103.618 49.2722 103.981 49.9173 105.06 49.9173C105.568 49.9173 105.941 49.858 106.266 49.7823L106.308 52.0961C105.874 52.2475 104.951 52.412 104.013 52.412C102.909 52.412 101.989 52.0533 101.428 51.4971C100.787 50.8619 100.49 49.8218 100.49 48.3408V37.5817H103.618ZM58.9718 52.1685H55.7984V37.5817H58.9718V52.1685ZM50.5095 48.2552C50.5095 48.456 50.4918 48.6666 50.4319 48.8476C50.1851 49.6079 49.3424 50.2497 48.2916 50.2497C47.4136 50.2497 46.7155 49.7856 46.7155 48.8015C46.7155 47.2974 48.4926 46.8794 50.513 46.8893V48.2552H50.5095ZM53.6793 45.6321C53.6793 43.1472 52.544 40.9651 48.7042 40.9651C46.7331 40.9651 45.1676 41.4818 44.3143 41.9426L44.9384 43.9371C45.7176 43.4763 46.9623 43.0978 48.14 43.0978C50.0899 43.0945 50.4072 44.128 50.4072 44.7895V44.9475C46.1584 44.9409 43.4751 46.3134 43.4751 49.1109C43.4751 50.8191 44.8397 52.4186 47.2162 52.4186C48.6795 52.4186 49.8995 51.8756 50.6329 51.0034H50.7034C50.7034 51.0034 51.19 52.8959 53.8627 52.1718C53.7216 51.3819 53.6758 50.5426 53.6758 49.5322V45.6321H53.6793ZM27.5341 37.5817C27.862 39.1253 28.7929 43.6079 28.7929 43.6079C29.1843 45.451 29.5439 47.383 29.8154 48.9101H29.8648C30.1293 47.2876 30.5453 45.7505 30.9896 43.8482L32.5587 37.5817H36.0318L37.4986 44.0095C37.8829 45.7966 38.1897 47.1757 38.433 48.8377H38.4788C38.7432 47.1592 39.0888 45.7242 39.4661 43.8877L40.8765 37.5817H44.2085L40.0796 52.1685C37.4492 52.705 36.4408 51.7176 36.0811 50.151C35.7215 48.581 35.0163 45.5959 35.0163 45.5959C34.6531 43.9601 34.371 42.8082 34.1736 41.1296H34.1242C33.8421 42.7917 33.5459 43.9568 33.1087 45.5926L31.3775 52.1718C28.6907 52.672 27.7598 51.9315 27.245 49.9206C26.8007 48.1992 24.0293 37.585 24.0293 37.585H27.5341V37.5817ZM87.0105 48.2552C87.0105 48.456 86.9928 48.6666 86.9329 48.8476C86.6861 49.6079 85.8434 50.2497 84.7926 50.2497C83.9147 50.2497 83.2165 49.7856 83.2165 48.8015C83.2165 47.2974 84.9936 46.8794 87.014 46.8893V48.2552H87.0105ZM90.1803 45.6321C90.1803 43.1472 89.045 40.9651 85.2052 40.9651C83.2341 40.9651 81.6686 41.4818 80.8153 41.9426L81.4394 43.9371C82.2187 43.4763 83.4633 43.0978 84.641 43.0978C86.5874 43.0945 86.9082 44.128 86.9082 44.7895V44.9475C82.6629 44.9409 79.9797 46.3134 79.9797 49.1109C79.9797 50.8191 81.3477 52.4186 83.7207 52.4186C85.1805 52.4186 86.404 51.8756 87.1339 51.0034H87.2079C87.2079 51.0034 87.6945 52.8959 90.3672 52.1718C90.2262 51.3819 90.1803 50.5426 90.1803 49.5322V45.6321Z" fill="#041E42"/>
<path d="M119.246 47.1447C119.559 47.6774 119.538 48.2719 119.204 48.5434L113.433 52.4991C112.832 52.8394 111.932 52.427 111.422 51.5643C110.909 50.6983 111.001 49.7325 111.602 49.3923L117.991 46.4848C118.392 46.3336 118.933 46.612 119.246 47.1447ZM126.841 47.1447C127.158 46.612 127.695 46.337 128.096 46.4814L134.489 49.3889C135.09 49.7291 135.178 50.6948 134.668 51.5609C134.155 52.4235 133.252 52.8325 132.655 52.4957L126.883 48.54C126.553 48.2719 126.528 47.6739 126.841 47.1447ZM123.042 49.2892C123.671 49.2892 124.188 49.6054 124.258 50.0212L124.88 56.8879C124.88 57.5684 124.068 58.1251 123.045 58.1251C122.026 58.1251 121.211 57.5684 121.211 56.8879L121.829 50.0212C121.9 49.6054 122.416 49.2892 123.042 49.2892ZM126.883 41.4603L132.655 37.5011C133.252 37.1609 134.155 37.5698 134.668 38.4359C135.178 39.302 135.09 40.2677 134.489 40.6079L128.096 43.5189C127.695 43.6632 127.154 43.3883 126.841 42.8556C126.528 42.3229 126.553 41.7283 126.883 41.4603ZM117.991 43.5189L111.602 40.6079C111.004 40.2677 110.913 39.302 111.422 38.4359C111.932 37.5698 112.835 37.1609 113.433 37.5011L119.204 41.4603C119.538 41.7249 119.559 42.3229 119.246 42.8556C118.933 43.3883 118.392 43.6632 117.991 43.5189ZM121.829 39.979L121.211 33.1124C121.211 32.4319 122.023 31.8751 123.045 31.8751C124.068 31.8751 124.88 32.4319 124.88 33.1124L124.258 39.979C124.188 40.3914 123.671 40.711 123.042 40.711C122.416 40.711 121.9 40.3914 121.829 39.979ZM136.229 52.4716V52.2998H136.387C136.44 52.2998 136.475 52.3342 136.475 52.3857C136.475 52.4338 136.44 52.4716 136.387 52.4716H136.229ZM136.099 52.7844C136.099 52.8016 136.113 52.8188 136.134 52.8188H136.201C136.218 52.8188 136.236 52.8016 136.236 52.7844V52.5885H136.345L136.433 52.7947C136.44 52.8084 136.45 52.8188 136.464 52.8188H136.545C136.57 52.8188 136.587 52.7947 136.577 52.7706C136.545 52.7088 136.514 52.6435 136.482 52.5782C136.535 52.561 136.616 52.5095 136.616 52.3857C136.616 52.2551 136.507 52.1795 136.398 52.1795H136.134C136.116 52.1795 136.099 52.1967 136.099 52.2139V52.7844ZM135.814 52.4991C135.814 52.2208 136.046 51.9939 136.331 51.9939C136.616 51.9939 136.847 52.2173 136.847 52.4991C136.847 52.7775 136.619 53.0043 136.331 53.0043C136.043 53.0043 135.814 52.7775 135.814 52.4991ZM135.691 52.4991C135.691 52.8428 135.976 53.1246 136.331 53.1246C136.682 53.1246 136.971 52.8428 136.971 52.4991C136.971 52.1555 136.682 51.8736 136.331 51.8736C135.976 51.8736 135.691 52.1555 135.691 52.4991Z" fill="#FFC124"/>
</g>
</g>
<defs>
<clipPath id="clip0_1_6943">
<rect width="160" height="90" fill="white" transform="translate(0.5 0.00012207)"/>
</clipPath>
<clipPath id="clip1_1_6943">
<rect width="112.941" height="26.25" fill="white" transform="translate(24.0293 31.8751)"/>
</clipPath>
</defs>
</svg>
