<svg width="161" height="90" viewBox="0 0 161 90" fill="none" xmlns="http://www.w3.org/2000/svg">
<g clip-path="url(#clip0_1_6895)">
<rect x="0.5" y="9.15527e-05" width="160" height="90" rx="16" fill="white"/>
<g clip-path="url(#clip1_1_6895)">
<path d="M60.2892 51.2617C60.1372 50.896 59.9946 50.5117 59.8425 50.1835L59.1392 48.6179L59.1107 48.5898C57.0198 44.0898 54.7864 39.5148 52.4199 35.0148L52.3248 34.8273C52.0872 34.3867 51.8496 33.8992 51.6025 33.4492C51.2984 32.9148 51.0038 32.3429 50.5191 31.7992C50.0466 31.2302 49.452 30.7718 48.7781 30.4571C48.1043 30.1423 47.368 29.9791 46.6224 29.9791C45.8768 29.9791 45.1406 30.1423 44.4667 30.4571C43.7928 30.7718 43.1982 31.2302 42.7258 31.7992C42.2791 32.3429 41.9464 32.9148 41.6423 33.4492C41.4047 33.9367 41.1671 34.4148 40.92 34.8554L40.825 35.0429C38.4965 39.5429 36.225 44.1179 34.1341 48.6179L34.0771 48.6742C33.868 49.1617 33.6209 49.6679 33.3833 50.2117C33.2312 50.5398 33.0792 50.896 32.9271 51.2898C32.5166 52.3208 32.3855 53.4396 32.5467 54.5359C32.708 55.6321 33.1561 56.668 33.8468 57.5414C34.5375 58.4148 35.447 59.0956 36.4856 59.5168C37.5243 59.9379 38.6563 60.0847 39.77 59.9429C40.8378 59.8043 41.8659 59.4534 42.7923 58.9117C44.0278 58.2273 45.2158 57.2335 46.5464 55.7992C47.877 57.2335 49.0935 58.2273 50.3005 58.921C51.4612 59.5931 52.7757 59.964 54.1211 59.9992C55.6791 60.0055 57.1869 59.4557 58.3661 58.4511C59.5452 57.4465 60.3161 56.055 60.5363 54.5335C60.7909 53.4402 60.7048 52.2965 60.2892 51.2523V51.2617ZM46.6414 52.8179C45.0067 50.7554 43.9423 48.8617 43.5811 47.2398C43.4315 46.6388 43.3992 46.0152 43.4861 45.4023C43.5526 44.9242 43.7332 44.5023 43.9803 44.146C44.5505 43.3304 45.5485 42.8242 46.6414 42.8242C47.1605 42.8085 47.6753 42.9202 48.1398 43.1493C48.6043 43.3784 49.0038 43.7177 49.3026 44.1367C49.5497 44.5117 49.7302 44.9242 49.7873 45.4023C49.8823 45.946 49.8443 46.5742 49.6922 47.2398C49.3311 48.8335 48.2666 50.746 46.6414 52.8179ZM58.7496 54.2054C58.6416 54.9779 58.3303 55.7089 57.8467 56.3257C57.3631 56.9426 56.7241 57.4236 55.9934 57.721C55.2711 58.021 54.4728 58.1054 53.6934 58.021C52.9331 57.9273 52.1728 57.6835 51.3934 57.2335C50.0995 56.4446 48.9359 55.4645 47.9435 54.3273C49.9393 51.8898 51.1463 49.6679 51.6025 47.6898C51.8211 46.7523 51.8496 45.9085 51.7546 45.1304C51.6359 44.3929 51.3571 43.6893 50.9373 43.0679C50.4579 42.3941 49.818 41.8468 49.0739 41.474C48.3298 41.1013 47.5043 40.9146 46.6699 40.9304C44.9117 40.9304 43.3435 41.7367 42.3931 43.0585C41.9653 43.6784 41.6888 44.3875 41.5853 45.1304C41.4617 45.9179 41.4902 46.7898 41.7373 47.6898C42.1935 49.6679 43.4291 51.9179 45.3964 54.346C44.4208 55.5049 43.2545 56.4937 41.9464 57.271C41.1576 57.721 40.4068 57.9554 39.6465 58.0492C38.464 58.1986 37.2696 57.8816 36.3229 57.1671C35.3761 56.4526 34.7534 55.3984 34.5903 54.2335C34.4953 53.4835 34.5618 52.7335 34.8659 51.8898C34.961 51.5898 35.1035 51.2898 35.2556 50.9335C35.4647 50.446 35.7118 49.9398 35.9494 49.4335L35.9874 49.3679C38.0403 44.896 40.2832 40.3304 42.6117 35.8585L42.7068 35.671C42.9444 35.221 43.182 34.7429 43.4291 34.2929C43.6762 33.8148 43.9423 33.3554 44.2844 32.9804C44.5806 32.6317 44.9506 32.3512 45.3685 32.1588C45.7864 31.9664 46.242 31.8666 46.7032 31.8666C47.1644 31.8666 47.62 31.9664 48.0379 32.1588C48.4558 32.3512 48.8258 32.6317 49.122 32.9804C49.4546 33.3554 49.7302 33.8148 49.9773 34.2929C50.2149 34.7429 50.4525 35.2304 50.6997 35.671L50.7947 35.8585C53.1137 40.3304 55.3566 44.896 57.4475 49.3679L57.476 49.396C57.7231 49.8835 57.9322 50.4273 58.1698 50.896C58.3219 51.2617 58.474 51.5523 58.569 51.8617C58.7496 52.7054 58.8446 53.4554 58.7496 54.2054ZM71.9792 52.6117C71.263 52.622 70.5537 52.4731 69.9038 52.1761C69.2539 51.8791 68.6802 51.4416 68.2251 50.896C67.2025 49.7335 66.6598 48.2345 66.7045 46.696C66.6888 45.124 67.249 43.5993 68.2821 42.4023C68.76 41.8497 69.3548 41.4072 70.0248 41.106C70.6947 40.8047 71.4235 40.652 72.1598 40.6585C72.8525 40.6398 73.5388 40.7952 74.1539 41.1101C74.7691 41.425 75.2929 41.889 75.6763 42.4585L75.7713 40.9867H78.5465V52.3117H75.7618L75.6668 50.6617C75.2715 51.2698 74.7253 51.7681 74.0799 52.1094C73.4345 52.4507 72.7114 52.6236 71.9792 52.6117ZM72.7015 49.9117C73.2527 49.9117 73.7374 49.7617 74.1936 49.4898C74.6118 49.1898 74.954 48.796 75.2201 48.3179C75.4577 47.8398 75.5812 47.2679 75.5812 46.6304C75.6183 46.0767 75.509 45.523 75.2641 45.0235C75.0192 44.5239 74.6471 44.0956 74.1841 43.7804C73.7393 43.507 73.2256 43.3621 72.7015 43.3621C72.1774 43.3621 71.6637 43.507 71.2189 43.7804C70.8007 44.0804 70.4585 44.4742 70.1924 44.9523C69.9411 45.4796 69.8175 46.0573 69.8313 46.6398C69.7942 47.1935 69.9035 47.7472 70.1484 48.2467C70.3933 48.7463 70.7654 49.1746 71.2284 49.4898C71.6751 49.7617 72.1598 49.9117 72.7015 49.9117ZM83.2985 37.9304C83.2985 38.2585 83.2415 38.5585 83.0894 38.8023C82.9373 39.0367 82.7283 39.2523 82.4526 39.4023C82.177 39.5523 81.8824 39.6085 81.5783 39.6085C81.2741 39.6085 80.97 39.5523 80.6944 39.4023C80.4337 39.2591 80.2145 39.0526 80.0576 38.8023C79.9104 38.5352 79.8383 38.2342 79.8485 37.9304C79.8485 37.5929 79.9151 37.2929 80.0576 37.0585C80.2097 36.7773 80.4283 36.6085 80.6944 36.4585C80.97 36.3085 81.2646 36.2429 81.5783 36.2429C81.8808 36.236 82.1799 36.3067 82.4465 36.448C82.713 36.5893 82.9378 36.7965 83.0989 37.0492C83.2372 37.3225 83.3057 37.625 83.2985 37.9304ZM80.0671 52.2742V40.9679H83.0894V52.2929H80.0576L80.0671 52.2742ZM91.1678 43.9304V43.9679C91.0253 43.9023 90.8352 43.8742 90.6926 43.846C90.5026 43.8085 90.3505 43.8085 90.1699 43.8085C89.3241 43.8085 88.6873 44.0523 88.2691 44.5585C87.8129 45.0742 87.6038 45.796 87.6038 46.7242V52.2835H84.572V40.9585H87.3567L87.4518 42.6742C87.7559 42.0742 88.117 41.6242 88.6303 41.2867C89.1408 40.9587 89.7417 40.795 90.3505 40.8179C90.5691 40.8179 90.7782 40.8367 90.9588 40.8742C91.0538 40.9023 91.1108 40.9023 91.1678 40.9304V43.9304ZM92.3844 52.2742V36.3179H95.4067V42.4117C95.8343 41.8679 96.319 41.446 96.9273 41.1179C97.8902 40.6522 98.9842 40.5201 100.033 40.7429C101.081 40.9657 102.023 41.5305 102.706 42.346C103.731 43.511 104.273 45.0137 104.226 46.5554C104.242 48.1274 103.682 49.6521 102.649 50.8492C102.171 51.4017 101.576 51.8442 100.906 52.1455C100.236 52.4467 99.5073 52.5995 98.7711 52.5929C98.0783 52.6116 97.3921 52.4562 96.7769 52.1413C96.1618 51.8265 95.6379 51.3624 95.2546 50.7929L95.1595 52.2648L92.3844 52.2929V52.2742ZM98.2293 49.9117C98.7711 49.9117 99.2558 49.7617 99.712 49.4898C100.13 49.1898 100.472 48.796 100.738 48.3179C100.986 47.8398 101.1 47.2679 101.1 46.6304C101.1 46.0023 100.986 45.4304 100.738 44.9523C100.489 44.4912 100.138 44.0909 99.712 43.7804C99.2671 43.507 98.7535 43.3621 98.2293 43.3621C97.7052 43.3621 97.1916 43.507 96.7467 43.7804C96.319 44.0804 95.9864 44.4742 95.7108 44.9523C95.4594 45.4796 95.3358 46.0573 95.3496 46.6398C95.3126 47.1935 95.4218 47.7472 95.6667 48.2467C95.9116 48.7463 96.2837 49.1746 96.7467 49.4898C97.1934 49.7617 97.6781 49.9117 98.2293 49.9117ZM105.367 52.2835V40.9585H108.152L108.247 42.4304C108.597 41.8662 109.093 41.4045 109.684 41.093C110.276 40.7814 110.941 40.6315 111.611 40.6585C112.377 40.6455 113.13 40.8555 113.776 41.2624C114.422 41.6692 114.931 42.2549 115.242 42.946C115.574 43.6585 115.755 44.5398 115.755 45.5242V52.3117H112.723V45.9179C112.723 45.1304 112.542 44.5117 112.181 44.0523C111.82 43.6023 111.326 43.3585 110.699 43.3585C110.242 43.3585 109.843 43.4523 109.492 43.6585C109.159 43.8742 108.883 44.146 108.674 44.5304C108.463 44.9189 108.358 45.3552 108.37 45.796V52.2835H105.367ZM117.266 52.2835V36.3085H120.298V42.4023C120.708 41.8555 121.243 41.4107 121.858 41.1031C122.473 40.7955 123.153 40.6337 123.843 40.6304C124.559 40.6201 125.268 40.7689 125.918 41.0659C126.568 41.3629 127.142 41.8004 127.597 42.346C128.614 43.5109 129.153 45.009 129.108 46.546C129.124 48.1182 128.564 49.6432 127.53 50.8398C127.052 51.3923 126.458 51.8348 125.788 52.1361C125.118 52.4374 124.389 52.5901 123.653 52.5835C122.96 52.6022 122.274 52.4468 121.658 52.132C121.043 51.8171 120.519 51.3531 120.136 50.7835L120.051 52.2554L117.266 52.2835ZM123.139 49.9117C123.691 49.9117 124.175 49.7617 124.622 49.4898C125.05 49.1898 125.382 48.796 125.658 48.3179C125.896 47.8398 126.019 47.2679 126.019 46.6304C126.056 46.0767 125.947 45.523 125.702 45.0235C125.457 44.5239 125.085 44.0956 124.622 43.7804C124.177 43.507 123.664 43.3621 123.139 43.3621C122.615 43.3621 122.102 43.507 121.657 43.7804C121.239 44.0804 120.896 44.4742 120.63 44.9523C120.365 45.4749 120.241 46.056 120.269 46.6398C120.232 47.1935 120.341 47.7472 120.586 48.2467C120.831 48.7463 121.203 49.1746 121.666 49.4898C122.113 49.7617 122.569 49.9117 123.139 49.9117Z" fill="#FF385C"/>
</g>
</g>
<defs>
<clipPath id="clip0_1_6895">
<rect x="0.5" y="9.15527e-05" width="160" height="90" fill="white"/>
</clipPath>
<clipPath id="clip1_1_6895">
<rect width="96.9412" height="30" fill="white" transform="translate(32.5 30.0001)"/>
</clipPath>
</defs>
</svg>
