<svg width="161" height="90" viewBox="0 0 161 90" fill="none" xmlns="http://www.w3.org/2000/svg">
<g clip-path="url(#clip0_1_6910)">
<rect x="0.5" y="9.15527e-05" width="160" height="90" rx="16" fill="white"/>
<g clip-path="url(#clip1_1_6910)">
<path d="M103.431 58.2208L111.28 49.5616L103.431 40.9011H111.712L115.6 45.1078L119.343 40.9011H127.336L119.524 49.5258L127.443 58.2208H119.127L115.275 53.9796L111.459 58.2208H103.431Z" fill="#FF6600"/>
<path d="M103.431 37.0186H94.5409V40.9011H103.431V46.7523H94.5409V52.1229H103.431V58.2209H88.0071V30.9376H103.431V37.0186Z" fill="#FF6600"/>
<path d="M81.5009 30.9376V42.1032H81.4293C79.9889 40.4776 78.1892 39.9127 76.101 39.9127C71.8236 39.9127 68.6015 42.7678 67.4704 46.5425C66.1806 42.3833 62.8542 39.8347 57.9216 39.8347C53.9158 39.8347 50.7527 41.6002 49.1019 44.477V40.9015H40.822V37.0194H49.8577V30.9376H33.4412V58.2212H40.822V46.7523H48.1788C47.9594 47.5948 47.8424 48.4968 47.8424 49.4487C47.8424 55.14 52.2704 59.1333 57.9216 59.1333C62.6737 59.1333 65.8054 56.9428 67.4618 52.949H61.1367C60.2811 54.1488 59.6321 54.5051 57.9216 54.5051C55.9381 54.5051 54.2281 52.806 54.2281 50.7918H67.1075C67.666 55.3123 71.2523 59.2108 76.1738 59.2108C78.2968 59.2108 80.2406 58.1855 81.4293 56.4542H81.5009V58.2204H88.0073V30.9376H81.5009ZM54.4335 46.8338C54.8439 45.1009 56.2127 43.9683 57.9216 43.9683C59.8027 43.9683 61.1019 45.066 61.4436 46.8338C61.5877 46.8338 54.4335 46.8338 54.4335 46.8338ZM77.5525 54.0668C75.1541 54.0668 73.6638 51.8726 73.6638 49.5817C73.6638 47.1328 74.9601 44.7779 77.5525 44.7779C80.2405 44.7779 81.3114 47.1328 81.3114 49.5817C81.311 51.904 80.1763 54.0668 77.5525 54.0668Z" fill="#652C8F"/>
</g>
</g>
<defs>
<clipPath id="clip0_1_6910">
<rect width="160" height="90" fill="white" transform="translate(0.5 9.15527e-05)"/>
</clipPath>
<clipPath id="clip1_1_6910">
<rect width="94.1176" height="28.125" fill="white" transform="translate(33.4412 30.9376)"/>
</clipPath>
</defs>
</svg>
