<svg width="56" height="56" viewBox="0 0 56 56" fill="none" xmlns="http://www.w3.org/2000/svg">
<rect width="56" height="56" rx="28" fill="#161A34" fill-opacity="0.6"/>
<path fill-rule="evenodd" clip-rule="evenodd" d="M19.5999 19.6C18.9372 19.6 18.3999 20.1372 18.3999 20.8C18.3999 21.4627 18.9372 22 19.5999 22V31.6C19.5999 32.9255 20.6744 34 21.9999 34H25.1028L23.5514 35.5514C23.0827 36.0201 23.0827 36.7799 23.5514 37.2485C24.02 37.7171 24.7798 37.7171 25.2484 37.2485L27.9999 34.497L30.7514 37.2485C31.22 37.7171 31.9798 37.7171 32.4484 37.2485C32.9171 36.7799 32.9171 36.0201 32.4484 35.5514L30.897 34H33.9999C35.3254 34 36.3999 32.9255 36.3999 31.6V22C37.0626 22 37.5999 21.4627 37.5999 20.8C37.5999 20.1372 37.0626 19.6 36.3999 19.6H19.5999ZM33.6484 25.2485C34.1171 24.7799 34.1171 24.0201 33.6484 23.5514C33.1798 23.0828 32.42 23.0828 31.9514 23.5514L27.9999 27.5029L26.4484 25.9514C25.9798 25.4828 25.22 25.4828 24.7514 25.9514L22.3514 28.3514C21.8827 28.8201 21.8827 29.5799 22.3514 30.0485C22.82 30.5171 23.5798 30.5171 24.0484 30.0485L25.5999 28.497L27.1514 30.0485C27.62 30.5171 28.3798 30.5171 28.8484 30.0485L33.6484 25.2485Z" fill="white"/>
</svg>
