<svg width="161" height="90" viewBox="0 0 161 90" fill="none" xmlns="http://www.w3.org/2000/svg">
<g clip-path="url(#clip0_1_6918)">
<rect x="0.5" y="9.15527e-05" width="160" height="90" rx="16" fill="white"/>
<g clip-path="url(#clip1_1_6918)">
<path d="M63.6185 46.8518L62.9341 48.7792H62.8771C62.763 48.3446 62.5539 47.6832 62.2117 46.8896L58.5427 37.7254H54.9497V52.3315H57.326V43.3184C57.326 42.7516 57.326 42.1091 57.307 41.3155C57.288 40.9187 57.25 40.6164 57.231 40.3896H57.288C57.4021 40.9565 57.5351 41.3722 57.6302 41.6367L62.0406 52.2937H63.7136L68.086 41.5423C68.181 41.2966 68.2761 40.8053 68.3711 40.3896H68.4282C68.3711 41.4667 68.3331 42.4303 68.3141 43.0161V52.2748H70.8425V37.6876H67.3826L63.6185 46.8518ZM73.2378 41.8068H75.7092V52.2748H73.2378V41.8068ZM74.4925 37.3853C74.0743 37.3853 73.7321 37.5364 73.4469 37.801C73.1618 38.0655 73.0097 38.4056 73.0097 38.8213C73.0097 39.2181 73.1618 39.5582 73.4469 39.8228C73.7321 40.0873 74.0743 40.2196 74.4925 40.2196C74.9107 40.2196 75.2719 40.0684 75.5381 39.8228C75.8233 39.5582 75.9753 39.2181 75.9753 38.8213C75.9753 38.4245 75.8233 38.0844 75.5381 37.801C75.291 37.5364 74.9298 37.3853 74.4925 37.3853ZM84.473 41.7123C84.0168 41.6178 83.5415 41.5611 83.0853 41.5611C81.9637 41.5611 80.9371 41.8068 80.0816 42.2981C79.2261 42.7893 78.5418 43.4696 78.1045 44.3199C77.6483 45.1891 77.4201 46.1905 77.4201 47.3431C77.4201 48.3446 77.6483 49.2327 78.0855 50.0452C78.5227 50.8388 79.1311 51.4812 79.9485 51.9158C80.728 52.3504 81.6405 52.5771 82.667 52.5771C83.8457 52.5771 84.8533 52.3315 85.6517 51.878L85.6707 51.8591V49.5917L85.5757 49.6673C85.2145 49.9318 84.7962 50.1585 84.378 50.2908C83.9407 50.442 83.5415 50.5175 83.1993 50.5175C82.2108 50.5175 81.4314 50.2341 80.8801 49.6106C80.3097 49.0059 80.0246 48.1745 80.0246 47.1353C80.0246 46.0582 80.3097 45.2079 80.8991 44.5844C81.4884 43.9609 82.2678 43.6396 83.2183 43.6396C84.0168 43.6396 84.8342 43.9042 85.5757 44.4332L85.6707 44.5088V42.1091L85.6517 42.0902C85.3285 41.9579 84.9673 41.8068 84.473 41.7123ZM92.6285 41.6367C92.0202 41.6367 91.4499 41.8257 90.9556 42.2225C90.5374 42.5626 90.2522 43.0539 90.0051 43.6396H89.9861V41.8068H87.5147V52.2748H89.9861V46.9274C89.9861 46.0204 90.1762 45.2646 90.5944 44.7167C91.0127 44.1498 91.545 43.8664 92.1913 43.8664C92.4194 43.8664 92.6476 43.9231 92.9327 43.9609C93.1989 44.0364 93.389 44.112 93.522 44.2065L93.6171 44.2821V41.8257L93.5601 41.8068C93.389 41.6934 93.0468 41.6367 92.6285 41.6367ZM99.3583 41.58C97.6283 41.58 96.2406 42.0902 95.271 43.0917C94.2825 44.0931 93.8072 45.4725 93.8072 47.2109C93.8072 48.8359 94.3015 50.1585 95.252 51.1222C96.2025 52.067 97.4952 52.5582 99.1111 52.5582C100.803 52.5582 102.153 52.0481 103.122 51.0277C104.111 50.0074 104.586 48.6469 104.586 46.9652C104.586 45.3024 104.13 43.9798 103.198 43.0161C102.305 42.0524 100.993 41.58 99.3583 41.58ZM101.335 49.6295C100.879 50.2152 100.157 50.4986 99.2632 50.4986C98.3697 50.4986 97.6473 50.2152 97.134 49.5917C96.6208 49.0059 96.3736 48.1556 96.3736 47.0786C96.3736 45.9638 96.6398 45.1135 97.134 44.5088C97.6473 43.9042 98.3507 43.6018 99.2442 43.6018C100.119 43.6018 100.803 43.8853 101.297 44.471C101.792 45.0568 102.058 45.9071 102.058 47.0219C102.02 48.1556 101.811 49.0437 101.335 49.6295ZM110.099 46.1527C109.32 45.8315 108.826 45.5859 108.597 45.378C108.407 45.1891 108.312 44.9245 108.312 44.5844C108.312 44.301 108.426 44.0175 108.711 43.8286C108.997 43.6396 109.32 43.5452 109.795 43.5452C110.213 43.5452 110.651 43.6207 111.069 43.7341C111.487 43.8475 111.867 44.0175 112.171 44.2443L112.266 44.3199V42.0146L112.209 41.9957C111.924 41.8824 111.544 41.769 111.088 41.6745C110.632 41.5989 110.213 41.5611 109.871 41.5611C108.692 41.5611 107.723 41.8446 106.962 42.4681C106.202 43.0539 105.841 43.8475 105.841 44.7734C105.841 45.2646 105.917 45.6992 106.088 46.0582C106.259 46.4173 106.506 46.7574 106.848 47.0408C107.191 47.3053 107.685 47.6077 108.369 47.8911C108.94 48.1367 109.377 48.3257 109.643 48.4768C109.909 48.628 110.08 48.7981 110.213 48.9303C110.308 49.0815 110.365 49.2704 110.365 49.5161C110.365 50.2152 109.833 50.5553 108.749 50.5553C108.331 50.5553 107.894 50.4798 107.381 50.3097C106.867 50.1396 106.392 49.894 105.993 49.6106L105.898 49.535V51.9347L105.955 51.9536C106.316 52.1236 106.753 52.237 107.286 52.3693C107.818 52.4638 108.293 52.5393 108.711 52.5393C109.985 52.5393 111.031 52.2559 111.772 51.6324C112.533 51.0277 112.932 50.253 112.932 49.2516C112.932 48.5524 112.742 47.9289 112.323 47.4565C111.772 47.003 111.088 46.5306 110.099 46.1527ZM119.452 41.58C117.722 41.58 116.335 42.0902 115.365 43.0917C114.396 44.0931 113.901 45.4725 113.901 47.2109C113.901 48.8359 114.396 50.1585 115.346 51.1222C116.297 52.067 117.589 52.5582 119.205 52.5582C120.897 52.5582 122.247 52.0481 123.216 51.0277C124.205 50.0074 124.68 48.6469 124.68 46.9652C124.68 45.3024 124.224 43.9798 123.293 43.0161C122.399 42.0524 121.087 41.58 119.452 41.58ZM121.41 49.6295C120.954 50.2152 120.232 50.4986 119.338 50.4986C118.426 50.4986 117.722 50.2152 117.209 49.5917C116.696 49.0059 116.449 48.1556 116.449 47.0786C116.449 45.9638 116.715 45.1135 117.209 44.5088C117.722 43.9042 118.426 43.6018 119.319 43.6018C120.175 43.6018 120.878 43.8853 121.372 44.471C121.867 45.0568 122.133 45.9071 122.133 47.0219C122.133 48.1556 121.886 49.0437 121.41 49.6295ZM137.893 43.8286V41.8068H135.402V38.7079L135.326 38.7268L132.969 39.426L132.912 39.4449V41.8068H129.186V40.4841C129.186 39.8795 129.338 39.4071 129.604 39.1048C129.87 38.8024 130.269 38.6513 130.764 38.6513C131.106 38.6513 131.467 38.7268 131.866 38.8969L131.961 38.9536V36.8184L131.904 36.7995C131.562 36.6861 131.106 36.6106 130.517 36.6106C129.775 36.6106 129.129 36.7806 128.539 37.0641C127.95 37.3853 127.513 37.8199 127.19 38.4056C126.866 38.9725 126.695 39.6149 126.695 40.3518V41.8068H124.965V43.8097H126.695V52.2748H129.186V43.8286H132.912V49.2138C132.912 51.4245 133.957 52.5393 136.049 52.5393C136.391 52.5393 136.752 52.4827 137.094 52.426C137.455 52.3504 137.721 52.2559 137.874 52.1803L137.893 52.1614V50.1396L137.798 50.2152C137.645 50.3097 137.512 50.3853 137.284 50.442C137.094 50.4986 136.923 50.5175 136.79 50.5175C136.296 50.5175 135.954 50.4042 135.706 50.1207C135.478 49.8562 135.364 49.4216 135.364 48.7792V43.8286H137.893Z" fill="#737373"/>
<path d="M23.0881 32.8126H34.7416V44.3954H23.0881V32.8126Z" fill="#F25022"/>
<path d="M35.9583 32.8126H47.6117V44.3954H35.9583V32.8126Z" fill="#7FBA00"/>
<path d="M23.0881 45.6047H34.7416V57.1876H23.0881V45.6047Z" fill="#00A4EF"/>
<path d="M35.9583 45.6047H47.6117V57.1876H35.9583V45.6047Z" fill="#FFB900"/>
</g>
</g>
<defs>
<clipPath id="clip0_1_6918">
<rect width="160" height="90" fill="white" transform="translate(0.5 9.15527e-05)"/>
</clipPath>
<clipPath id="clip1_1_6918">
<rect width="114.824" height="24.375" fill="white" transform="translate(23.0881 32.8126)"/>
</clipPath>
</defs>
</svg>
