<svg width="12" height="12" viewBox="0 0 12 12" fill="none" xmlns="http://www.w3.org/2000/svg">
<path d="M2.87724 5.28381C2.38804 5.28381 1.98779 5.68406 1.98779 6.17326C1.98779 6.66246 2.38804 7.06271 2.87724 7.06271C3.36644 7.06271 3.76669 6.66246 3.76669 6.17326C3.76669 5.68406 3.36644 5.28381 2.87724 5.28381Z" fill="#7E8492"/>
<path d="M9.1038 5.28381C8.61461 5.28381 8.21436 5.68406 8.21436 6.17326C8.21436 6.66246 8.61461 7.06271 9.1038 7.06271C9.593 7.06271 9.99325 6.66246 9.99325 6.17326C9.99325 5.68406 9.593 5.28381 9.1038 5.28381Z" fill="#7E8492"/>
<path d="M5.99052 5.28381C5.50133 5.28381 5.10107 5.68406 5.10107 6.17326C5.10107 6.66246 5.50133 7.06271 5.99052 7.06271C6.47972 7.06271 6.87997 6.66246 6.87997 6.17326C6.87997 5.68406 6.47972 5.28381 5.99052 5.28381Z" fill="#7E8492"/>
</svg>
